<svg data-v-18a2ccdf="" xmlns="http://www.w3.org/2000/svg" fill="none" viewBox="0 0 139 39" alt="Download on the App Store. This opens in a new window."><path fill="#000" d="M138.777 34.757c0 2.139-1.786 3.872-3.996 3.872H4.001C1.793 38.629 0 36.896 0 34.757V3.877C0 1.74 1.793 0 4.001 0H134.78c2.211 0 3.996 1.739 3.996 3.877z"></path><path fill="#fff" d="M30.54 19.098c-.03-3.234 2.743-4.808 2.87-4.881-1.571-2.211-4.006-2.513-4.861-2.537-2.045-.208-4.029 1.181-5.07 1.181-1.063 0-2.666-1.161-4.395-1.127-2.225.033-4.306 1.277-5.447 3.207-2.356 3.938-.6 9.723 1.658 12.906 1.129 1.558 2.448 3.298 4.174 3.237 1.69-.067 2.32-1.04 4.36-1.04 2.019 0 2.611 1.04 4.372 1.001 1.813-.028 2.955-1.565 4.044-3.138 1.305-1.787 1.829-3.546 1.85-3.636-.043-.014-3.521-1.296-3.556-5.173M27.213 9.586c.908-1.097 1.53-2.589 1.357-4.103-1.314.056-2.96.878-3.906 1.95-.838.946-1.586 2.496-1.393 3.953 1.477.106 2.994-.72 3.942-1.8M54.986 30.86h-2.36l-1.294-3.924h-4.495l-1.232 3.923h-2.298l4.453-13.356h2.75zm-4.044-5.57-1.17-3.487q-.184-.535-.697-2.516h-.042a94 94 0 0 1-.657 2.516l-1.148 3.487zM66.438 25.926q0 2.457-1.375 3.883-1.232 1.268-3.058 1.268-1.97 0-2.833-1.367h-.042v5.073h-2.216V24.4q0-1.544-.082-3.17h1.95l.123 1.526h.041q1.11-1.724 3.366-1.724 1.767 0 2.945 1.347 1.181 1.349 1.181 3.548m-2.258.078q0-1.406-.657-2.318-.718-.951-1.929-.952-.821.002-1.488.525-.666.526-.872 1.378a2.7 2.7 0 0 0-.102.652v1.606q0 1.05.667 1.775.668.723 1.734.723 1.251 0 1.949-.931t.698-2.458M77.912 25.926q0 2.457-1.377 3.883-1.23 1.268-3.057 1.268-1.971 0-2.832-1.367h-.041v5.073h-2.217V24.4q0-1.544-.082-3.17h1.95l.123 1.526h.042q1.107-1.724 3.366-1.724 1.763 0 2.946 1.347 1.178 1.349 1.179 3.548m-2.258.078q0-1.406-.658-2.318c-.48-.634-1.12-.952-1.929-.952q-.82.002-1.488.525-.667.526-.871 1.378a2.8 2.8 0 0 0-.103.652v1.606q0 1.05.665 1.775.667.722 1.736.723 1.252 0 1.95-.931t.698-2.458M90.74 27.114q0 1.703-1.23 2.774-1.35 1.17-3.768 1.169-2.23 0-3.585-.832l.514-1.783a6.24 6.24 0 0 0 3.203.853q1.252 0 1.952-.546.696-.546.696-1.46 0-.812-.575-1.368-.573-.556-1.908-1.033-3.632-1.309-3.632-3.83 0-1.648 1.273-2.698 1.269-1.052 3.387-1.052 1.887 0 3.14.634l-.555 1.744q-1.169-.614-2.648-.614-1.17 0-1.825.555-.554.495-.554 1.21 0 .791.635 1.307.554.475 2.013 1.03 1.784.694 2.627 1.625.84.929.84 2.315M98.067 22.835h-2.443v4.675q-.001 1.785 1.294 1.784.593 0 .984-.1l.061 1.625q-.655.237-1.723.237-1.314 0-2.053-.773t-.74-2.596v-4.854h-1.455v-1.606h1.456v-1.763l2.176-.635v2.398h2.443zM109.089 25.965q0 2.22-1.314 3.646-1.377 1.468-3.655 1.467-2.195 0-3.498-1.406-1.303-1.407-1.303-3.547 0-2.239 1.344-3.665 1.343-1.427 3.622-1.427 2.196 0 3.53 1.407 1.275 1.365 1.274 3.525m-2.299.07q.001-1.333-.595-2.286-.697-1.152-1.989-1.152-1.336 0-2.033 1.152-.595.954-.594 2.326-.002 1.333.594 2.284.718 1.153 2.013 1.152 1.27 0 1.989-1.172.614-.972.615-2.304M116.293 23.11a4 4 0 0 0-.698-.058q-1.17 0-1.807.852-.554.754-.554 1.902v5.053h-2.215l.02-6.597q0-1.665-.083-3.032h1.931l.081 1.843h.061a3.3 3.3 0 0 1 1.108-1.526 2.75 2.75 0 0 1 1.602-.516q.308 0 .554.04zM126.205 25.589q0 .574-.081.97h-6.649q.038 1.427.965 2.18.84.675 2.175.674 1.477 0 2.69-.455l.347 1.485q-1.415.595-3.344.595-2.32 0-3.645-1.318-1.322-1.317-1.323-3.536 0-2.18 1.233-3.626 1.292-1.545 3.487-1.545 2.157 0 3.266 1.545.878 1.229.879 3.03m-2.113-.555q.02-.952-.431-1.645-.575-.892-1.766-.892-1.088 0-1.764.872-.554.693-.656 1.664h4.617M50.21 9.287q-.001 1.772-1.1 2.667-1.02.827-2.894.827-.93 0-1.593-.078V6.25q.868-.135 1.876-.136 1.785 0 2.692.75 1.018.846 1.018 2.424m-1.15.029q0-1.149-.63-1.762t-1.84-.613q-.515 0-.878.068v4.906q.202.03.736.03 1.25 0 1.93-.672.682-.672.683-1.957M56.3 10.32q0 1.09-.646 1.79-.675.722-1.795.721-1.079 0-1.72-.691-.638-.691-.639-1.742 0-1.1.66-1.8.661-.7 1.78-.701 1.079 0 1.735.69.625.672.625 1.732m-1.13.034q0-.655-.292-1.123-.343-.567-.977-.567-.656.001-1 .566-.292.469-.292 1.143 0 .654.293 1.123.353.566.988.566.624 0 .977-.576.303-.478.303-1.133M64.466 7.993l-1.533 4.731h-.998L61.3 10.67a15 15 0 0 1-.394-1.529h-.02q-.14.78-.394 1.529l-.674 2.054h-1.01l-1.441-4.73h1.119l.554 2.248q.2.799.333 1.519h.02q.12-.595.404-1.509l.695-2.258h.888l.666 2.21q.243.808.393 1.558h.03q.111-.73.333-1.558l.595-2.21h1.07M70.114 12.724h-1.09v-2.71q0-1.251-.987-1.252a1 1 0 0 0-.787.344q-.301.345-.302.811v2.806h-1.09V9.345q0-.622-.04-1.354h.958l.051.74h.03q.191-.345.565-.571a1.9 1.9 0 0 1 .987-.266q.687 0 1.14.429.565.525.565 1.567zM73.118 12.724H72.03V5.822h1.088zM79.532 10.32q0 1.09-.645 1.79-.677.722-1.796.721-1.08 0-1.719-.691-.64-.691-.64-1.742 0-1.1.66-1.8.662-.7 1.78-.701 1.079 0 1.736.69.623.672.624 1.732m-1.13.034q0-.655-.293-1.123-.342-.567-.976-.567-.658.001-.999.566-.292.469-.292 1.143 0 .654.292 1.123.353.566.989.566.622 0 .976-.576.303-.478.302-1.133M84.805 12.724h-.979l-.08-.545h-.03q-.503.652-1.432.652-.695 0-1.119-.428a1.32 1.32 0 0 1-.383-.964q0-.866.751-1.323.752-.458 2.114-.448V9.58q0-.935-1.018-.935-.725.001-1.278.35l-.221-.69c.455-.272 1.018-.408 1.68-.408q1.924 0 1.924 1.957v1.742q0 .71.07 1.128m-1.131-1.626v-.73q-1.803-.03-1.803.954 0 .37.21.555t.531.185q.36 0 .667-.22a.9.9 0 0 0 .395-.744M90.995 12.724h-.967l-.05-.76h-.03q-.465.867-1.574.867a1.87 1.87 0 0 1-1.472-.671q-.585-.672-.585-1.742 0-1.149.636-1.86.614-.663 1.512-.663.988 0 1.38.643h.021V5.822h1.09v5.627q0 .69.04 1.275m-1.129-1.995v-.79a1.5 1.5 0 0 0-.03-.33 1.2 1.2 0 0 0-.394-.638 1.1 1.1 0 0 0-.728-.258q-.61 0-.959.468-.349.467-.35 1.197 0 .701.335 1.14.356.466.953.466.535 0 .86-.39.314-.36.313-.865M100.313 10.32q0 1.09-.646 1.79-.675.722-1.795.721-1.078 0-1.72-.691-.639-.691-.639-1.742 0-1.1.66-1.8t1.78-.701q1.08 0 1.735.69.625.672.625 1.732m-1.13.034q0-.655-.292-1.123c-.23-.378-.553-.567-.978-.567q-.654.001-.999.566-.292.469-.292 1.143 0 .654.292 1.123.353.566.989.566.625 0 .978-.576.302-.478.303-1.133M106.17 12.724h-1.088v-2.71q0-1.251-.989-1.252a1 1 0 0 0-.786.344q-.302.345-.302.811v2.806h-1.091V9.345q0-.622-.038-1.354h.956l.051.74h.03q.192-.345.565-.571.445-.266.988-.266.685 0 1.14.429.565.525.564 1.567zM113.502 8.78h-1.2v2.298q.001.876.636.876.293 0 .485-.049l.028.798q-.323.117-.846.117-.645 0-1.007-.379-.365-.38-.364-1.276V8.78h-.716v-.788h.716v-.867l1.067-.311v1.177h1.2zM119.269 12.724h-1.09v-2.69q0-1.272-.987-1.272-.757 0-1.039.737-.05.156-.051.379v2.845h-1.088V5.822h1.088v2.851h.021q.515-.778 1.472-.778.676 0 1.12.429.554.535.554 1.587zM125.218 10.134q0 .283-.04.477h-3.267q.02.7.473 1.07.414.332 1.069.332.726 0 1.322-.224l.17.73q-.696.293-1.644.293-1.14 0-1.789-.648-.651-.646-.65-1.737-.001-1.07.605-1.781.633-.759 1.713-.759 1.058 0 1.602.759.437.602.436 1.488m-1.039-.272a1.38 1.38 0 0 0-.211-.808q-.283-.438-.867-.438-.535 0-.867.428-.271.341-.323.818z"></path></svg>