<?xml version="1.0" encoding="UTF-8"?>
<svg id="Layer_1" data-name="Layer 1" xmlns="http://www.w3.org/2000/svg" viewBox="0 0 173 26">
  <defs>
    <style>
      .cls-1, .cls-2, .cls-3 {
        stroke-width: 0px;
      }

      .cls-2 {
        fill: #fff;
      }

      .cls-3 {
        fill: #0070b9;
      }
    </style>
  </defs>
  <path class="cls-1" d="m95.93,5.61c-.2,0-.36.16-.36.36v14.07c0,.21.18.37.39.35.18-.02.32-.18.32-.37V5.97c0-.2-.16-.36-.36-.36Zm-48.47,5.66h-1.31v-2.53h-2.13v2.53h-1.74v-2.53h-2.13v2.53h-.73v1.8h.73v5.69h2.13v-5.69h1.74v5.69h2.13v-5.69h1.31v-1.8Zm-18.47,1.33c.72-.46,1.01-1.41,1.01-2.23,0-2.29-1.31-3.12-3.45-3.12h-2.79v11.51h3.52c2.09,0,3.67-1,3.67-3.27,0-1.27-.61-2.65-1.97-2.89Zm-2.99-3.56h.29c.95,0,1.62.31,1.62,1.48s-.53,1.51-1.63,1.51h-.27v-2.99Zm.47,7.92h-.47v-3.21h.37c1.13,0,2.35.06,2.35,1.56s-1.04,1.65-2.24,1.65Zm37.54-5.93c-.87,0-1.73.44-2.19,1.18-.49-.8-1.22-1.18-2.15-1.18-.69,0-1.42.32-1.84.92h-.03v-.68h-2.13v7.49h2.13v-3.68c0-.78-.06-2.33,1.13-2.33,1.12,0,1.03,1.49,1.03,2.22v3.79h2.13v-3.67c0-.78-.02-2.34,1.15-2.34,1.06,0,1.01,1.35,1.01,2.08v3.93h2.13v-4.66c0-1.63-.47-3.07-2.37-3.07Zm-28.76,0c-2.33,0-3.93,1.66-3.93,3.99s1.58,3.98,3.93,3.98,3.93-1.66,3.93-3.98-1.6-3.99-3.93-3.99Zm0,6.07c-1.1,0-1.77-1.08-1.77-2.08s.67-2.1,1.77-2.1,1.77,1.06,1.77,2.1-.67,2.08-1.77,2.08Zm15.8-6.07c-2.33,0-3.93,1.66-3.93,3.99s1.58,3.98,3.93,3.98,3.93-1.66,3.93-3.98-1.6-3.99-3.93-3.99Zm0,6.07c-1.1,0-1.77-1.08-1.77-2.08s.67-2.1,1.77-2.1,1.77,1.06,1.77,2.1-.67,2.08-1.77,2.08Zm27.57-6.07c-.77,0-1.52.26-1.96.93h-.03v-.7h-2.13v7.49h2.13v-3.71c0-.89.02-2.3,1.28-2.3s1.16,1.16,1.16,2.05v3.96h2.13v-4.57c0-1.74-.58-3.16-2.59-3.16Zm-6.5-4.18c-.7,0-1.26.58-1.26,1.26s.56,1.26,1.26,1.26,1.26-.56,1.26-1.26-.56-1.26-1.26-1.26Zm13.41,4.18c-2.42,0-3.63,1.78-3.63,4.05s1.42,3.92,3.74,3.92c1.57,0,2.88-.84,3.4-2.33l-1.97-.32c-.29.59-.73,1.02-1.43,1.02-1.11,0-1.48-1.06-1.48-2.01h4.93v-.26c0-2.25-1.1-4.06-3.55-4.06Zm-1.31,2.99c.11-.77.58-1.5,1.43-1.5s1.31.74,1.42,1.5h-2.85Zm-13.15,4.74h2.13v-7.49h-2.13v7.49Zm-3.45,0h2.13V5.81h-2.13v12.94Zm72.7-10.2c-.04-.23-.27-.39-.5-.39-.17,0-.33.06-.45.25-1.34,2.5-2.79,5.76-3.9,8.3-1.26-2.58-2.79-5.74-3.86-7.91-.08-.17-.21-.37-.31-.47-.08-.1-.19-.16-.35-.16-.23,0-.47.17-.5.41-.48,2.77-1.07,7.39-1.26,9.11l-.06.56c0,.29.21.5.47.5s.48-.19.5-.43c.21-1.92.68-5.52,1.1-8.26,1.16,2.42,2.69,5.66,3.84,8.04.08.17.27.27.47.27.21,0,.35-.14.43-.33.97-2.35,2.37-5.39,3.66-8.01.52,2.79,1.05,6.07,1.34,8.28.04.25.25.43.48.43.27,0,.48-.21.48-.48,0-.08-.02-.27-.21-1.55-.14-.87-.76-5.14-1.38-8.18Zm8.34-.37c-3,0-5.06,2.19-5.06,5.43,0,2.97,2.09,5.29,5.06,5.29,3.14,0,4.98-2.33,4.98-5.35,0-3.18-2.23-5.37-4.98-5.37Zm0,9.75c-2.42,0-4.09-1.94-4.09-4.32,0-2.62,1.63-4.46,4.09-4.46,2.25,0,4.01,1.84,4.01,4.4s-1.45,4.38-4.01,4.38Zm10.99-9.58h-3.41c-.27,0-.48.21-.48.48v9.4c0,.27.21.48.48.48h3.41c2.95,0,4.89-2.29,4.89-5.2,0-3.06-2.33-5.18-4.89-5.18Zm0,9.4h-2.93v-8.43h2.93c2.09,0,3.92,1.76,3.92,4.21s-1.51,4.23-3.92,4.23Zm12.89,0h-4.92v-4.09h4.05c.27,0,.48-.23.48-.48,0-.27-.21-.48-.48-.48h-4.05v-3.37h4.89c.27,0,.48-.23.48-.48,0-.27-.21-.48-.48-.48h-5.43c-.23,0-.43.23-.43.48v9.4c0,.25.23.48.48.48h5.41c.27,0,.48-.23.48-.48,0-.27-.21-.48-.48-.48Z"/>
  <path class="cls-2" d="m13.85,13.15c0-.97-.52-1.82-1.29-2.29.33-.37.53-.86.53-1.4,0-1.17-.95-2.12-2.12-2.12h-5.74v8.47h5.95c1.47,0,2.67-1.19,2.67-2.67Zm-7.08-4.56h3.81c.55,0,.99.44.99.99s-.44.99-.99.99h-3.81v-1.99Zm0,5.7v-2.3h4.38c.63,0,1.15.51,1.15,1.15s-.51,1.15-1.15,1.15h-4.38Zm6.23,2.94h-7.19c-.39,0-.71.32-.71.71h0c0,.39.32.71.71.71h7.22c.42,0,.75-.36.71-.78-.04-.37-.37-.64-.74-.64Z"/>
  <path class="cls-3" d="m11.57,9.58c0-.55-.44-.99-.99-.99h-3.81v1.99h3.81c.55,0,.99-.44.99-.99Zm102.18-1.22l-3.99,10.37h2.71l.73-1.84h3.92l.69,1.84h2.72l-3.91-10.37h-2.86Zm.14,6.63l1.28-3.56,1.28,3.56h-2.55ZM11.14,12h-4.38v2.3h4.38c.63,0,1.15-.51,1.15-1.15s-.51-1.15-1.15-1.15Zm-1.99-8.14c-3.69.07-6.59-.11-7.88,1.27C-.11,6.41.07,9.31,0,13c.07,3.69-.11,6.59,1.27,7.88,1.29,1.38,4.2,1.19,7.88,1.27,3.69-.07,6.59.11,7.88-1.27,1.38-1.29,1.19-4.2,1.27-7.88-.07-3.69.11-6.59-1.27-7.88-1.29-1.38-4.2-1.19-7.88-1.27Zm3.88,14.8h-7.22c-.39,0-.71-.32-.71-.71s.32-.71.71-.71h7.19c.37,0,.7.27.74.64.04.42-.29.78-.71.78Zm-1.85-2.84h-5.95V7.34h5.74c1.17,0,2.12.95,2.12,2.12,0,.54-.2,1.03-.53,1.4.77.47,1.29,1.32,1.29,2.29,0,1.47-1.19,2.67-2.67,2.67Zm115.1-7.45l-2.27,4.4-2.27-4.4h-2.83l3.83,7.02v3.35h2.55v-3.37s3.83-7,3.83-7h-2.83Zm-19.56,0h-4.11v10.37h2.55v-3.5h1.65c2.45,0,3.64-1.14,3.64-3.49,0-2.18-1.33-3.38-3.74-3.38Zm-.99,4.85h-.56v-2.83h.56c1.02,0,2.07,0,2.07,1.44s-1.1,1.39-2.07,1.39Z"/>
</svg>
