<svg data-v-18a2ccdf="" xmlns="http://www.w3.org/2000/svg" fill="none" viewBox="0 0 139 39" alt="Get it on Google Play. This opens in a new window."><path fill="#000" d="M133.86 38.629H5.363c-2.826 0-5.14-2.174-5.14-4.829V4.83C.223 2.174 2.537 0 5.363 0H133.86C136.686 0 139 2.174 139 4.83V33.8c0 2.655-2.314 4.829-5.14 4.829"></path><path fill="#fff" stroke="#fff" stroke-miterlimit="10" stroke-width=".16" d="M48.967 9.893c0 .806-.257 1.452-.763 1.934q-.874.857-2.27.858c-.887 0-1.646-.292-2.268-.868a2.84 2.84 0 0 1-.934-2.16q0-1.286.934-2.154.934-.872 2.268-.873c.443 0 .864.086 1.266.245.401.16.727.378.964.646l-.537.51c-.413-.458-.974-.684-1.693-.684q-.97-.001-1.685.64-.709.645-.709 1.67 0 1.028.709 1.675a2.46 2.46 0 0 0 1.685.64c.688 0 1.266-.217 1.722-.645q.45-.426.517-1.175h-2.239v-.697h2.987c.036.15.046.297.046.438ZM53.705 7.474H50.9v1.835h2.528v.697H50.9v1.835h2.805v.711h-3.6v-5.79h3.6zM57.048 12.552h-.794V7.474h-1.72v-.711h4.236v.71h-1.722zM61.836 12.552v-5.79h.793v5.79zM66.143 12.552h-.787V7.474h-1.727v-.711h4.241v.71h-1.727zM75.891 11.807q-.911.879-2.259.878-1.353 0-2.264-.878-.91-.876-.908-2.15-.001-1.272.908-2.15c.608-.585 1.36-.877 2.264-.877q1.34-.002 2.254.882c.612.59.913 1.302.913 2.145q.001 1.274-.908 2.15Zm-3.936-.485c.458.433 1.014.65 1.677.65.658 0 1.22-.217 1.672-.65q.686-.651.687-1.665-.001-1.012-.687-1.664c-.453-.434-1.014-.65-1.672-.65q-.993 0-1.677.65-.686.651-.687 1.664.002 1.014.687 1.665ZM77.914 12.552v-5.79h.963l2.997 4.503h.035l-.035-1.113v-3.39h.793v5.79h-.828l-3.138-4.725h-.034l.034 1.118v3.607z"></path><path fill="#fff" d="M70.264 21.006c-2.414 0-4.387 1.726-4.387 4.108 0 2.363 1.973 4.107 4.387 4.107 2.42 0 4.392-1.744 4.392-4.107 0-2.382-1.972-4.108-4.392-4.108m0 6.597a2.445 2.445 0 0 1-2.465-2.489c0-1.481 1.14-2.49 2.465-2.49s2.47 1.009 2.47 2.49a2.45 2.45 0 0 1-2.47 2.49m-9.572-6.597c-2.42 0-4.387 1.726-4.387 4.108 0 2.363 1.968 4.107 4.387 4.107s4.387-1.744 4.387-4.107c0-2.382-1.968-4.108-4.387-4.108m0 6.597a2.45 2.45 0 0 1-2.47-2.489c0-1.481 1.144-2.49 2.47-2.49 1.325 0 2.465 1.009 2.465 2.49 0 1.462-1.14 2.49-2.465 2.49m-11.39-5.338v1.746h4.437c-.13.975-.476 1.692-1.008 2.192-.648.604-1.657 1.274-3.429 1.274-2.73 0-4.868-2.07-4.868-4.636 0-2.565 2.138-4.635 4.868-4.635 1.477 0 2.551.542 3.344 1.244l1.31-1.23c-1.11-.995-2.585-1.759-4.654-1.759-3.744 0-6.891 2.863-6.891 6.38s3.147 6.38 6.891 6.38c2.024 0 3.544-.623 4.74-1.791 1.224-1.151 1.605-2.768 1.605-4.075 0-.405-.035-.778-.1-1.09zm46.576 1.354c-.362-.92-1.476-2.613-3.745-2.613-2.249 0-4.12 1.665-4.12 4.108 0 2.301 1.852 4.107 4.336 4.107 2.008 0 3.167-1.15 3.644-1.82l-1.49-.934c-.498.684-1.175 1.136-2.154 1.136-.973 0-1.67-.419-2.118-1.244l5.848-2.273zm-5.963 1.367c-.05-1.584 1.31-2.395 2.284-2.395.763 0 1.41.359 1.626.872zm-4.753 3.985h1.922V16.9h-1.922zm-3.148-7.05h-.064c-.432-.48-1.256-.915-2.3-.915-2.189 0-4.19 1.806-4.19 4.121 0 2.303 2.001 4.094 4.19 4.094 1.044 0 1.868-.438 2.3-.933h.064v.589c0 1.57-.893 2.414-2.334 2.414-1.174 0-1.903-.797-2.203-1.467l-1.672.656c.482 1.089 1.758 2.429 3.875 2.429 2.254 0 4.156-1.246 4.156-4.277v-7.376h-1.822zm-2.199 5.682c-1.325 0-2.433-1.042-2.433-2.476 0-1.447 1.108-2.503 2.433-2.503 1.306 0 2.335 1.056 2.335 2.503 0 1.435-1.03 2.476-2.335 2.476M104.877 16.9h-4.597v12.072h1.917v-4.574h2.68c2.13 0 4.218-1.447 4.218-3.75 0-2.3-2.093-3.747-4.218-3.747m.051 5.819h-2.731v-4.14h2.731c1.431 0 2.248 1.117 2.248 2.07 0 .934-.817 2.07-2.248 2.07m11.851-1.735c-1.385 0-2.826.575-3.418 1.848l1.701.67c.366-.67 1.04-.887 1.752-.887.994 0 2.003.561 2.018 1.552v.127c-.347-.188-1.089-.467-2.003-.467-1.832 0-3.699.948-3.699 2.716 0 1.618 1.5 2.66 3.188 2.66 1.29 0 2.002-.547 2.449-1.184h.065v.934h1.852V24.32c0-2.14-1.701-3.338-3.905-3.338m-.231 6.616c-.627 0-1.501-.293-1.501-1.023 0-.934 1.089-1.293 2.033-1.293.844 0 1.24.175 1.752.406-.15 1.118-1.174 1.91-2.284 1.91m10.882-6.351-2.204 5.233h-.065l-2.279-5.233h-2.067l3.423 7.313-1.953 4.069h2.003l5.275-11.382zm-17.282 7.723h1.923V16.9h-1.923z"></path><path fill="url(#a)" d="M10.95 7.28c-.302.297-.477.76-.477 1.358v21.357c0 .598.175 1.06.477 1.358l.074.065 12.74-11.963v-.282L11.024 7.21z"></path><path fill="url(#b)" d="m28.005 23.446-4.241-3.99v-.282l4.246-3.99.095.052 5.03 2.688c1.435.763 1.435 2.019 0 2.786l-5.03 2.684z"></path><path fill="url(#c)" d="m28.105 23.394-4.341-4.079-12.814 12.04c.477.47 1.254.527 2.138.056z"></path><path fill="url(#d)" d="M28.105 15.236 13.088 7.219c-.884-.466-1.661-.41-2.138.061l12.814 12.034z"></path><defs><linearGradient id="a" x1="22.633" x2="6.457" y1="30.217" y2="12.999" gradientUnits="userSpaceOnUse"><stop stop-color="#00A0FF"></stop><stop offset=".007" stop-color="#00A1FF"></stop><stop offset=".26" stop-color="#00BEFF"></stop><stop offset=".512" stop-color="#00D2FF"></stop><stop offset=".76" stop-color="#00DFFF"></stop><stop offset="1" stop-color="#00E3FF"></stop></linearGradient><linearGradient id="b" x1="35.004" x2="10.13" y1="19.314" y2="19.314" gradientUnits="userSpaceOnUse"><stop stop-color="#FFE000"></stop><stop offset=".409" stop-color="#FFBD00"></stop><stop offset=".775" stop-color="orange"></stop><stop offset="1" stop-color="#FF9C00"></stop></linearGradient><linearGradient id="c" x1="25.744" x2="3.809" y1="17.098" y2="-6.252" gradientUnits="userSpaceOnUse"><stop stop-color="#FF3A44"></stop><stop offset="1" stop-color="#C31162"></stop></linearGradient><linearGradient id="d" x1="7.724" x2="17.519" y1="38.459" y2="28.032" gradientUnits="userSpaceOnUse"><stop stop-color="#32A071"></stop><stop offset=".069" stop-color="#2DA771"></stop><stop offset=".476" stop-color="#15CF74"></stop><stop offset=".801" stop-color="#06E775"></stop><stop offset="1" stop-color="#00F076"></stop></linearGradient></defs></svg>